<svg width="20" height="13" viewBox="0 0 20 13" fill="none" xmlns="http://www.w3.org/2000/svg">
<path d="M6.48649 7.03125H4.86486C4.56622 7.03125 4.32432 7.20605 4.32432 7.42188V12.1094C4.32432 12.3252 4.56622 12.5 4.86486 12.5H6.48649C6.78513 12.5 7.02703 12.3252 7.02703 12.1094V7.42188C7.02703 7.20605 6.78513 7.03125 6.48649 7.03125ZM2.16216 9.375H0.540541C0.241892 9.375 0 9.5498 0 9.76562V12.1094C0 12.3252 0.241892 12.5 0.540541 12.5H2.16216C2.46081 12.5 2.7027 12.3252 2.7027 12.1094V9.76562C2.7027 9.5498 2.46081 9.375 2.16216 9.375ZM10.8108 4.6875H9.18919C8.89054 4.6875 8.64865 4.8623 8.64865 5.07812V12.1094C8.64865 12.3252 8.89054 12.5 9.18919 12.5H10.8108C11.1095 12.5 11.3514 12.3252 11.3514 12.1094V5.07812C11.3514 4.8623 11.1095 4.6875 10.8108 4.6875ZM15.1351 2.34375H13.5135C13.2149 2.34375 12.973 2.51855 12.973 2.73438V12.1094C12.973 12.3252 13.2149 12.5 13.5135 12.5H15.1351C15.4338 12.5 15.6757 12.3252 15.6757 12.1094V2.73438C15.6757 2.51855 15.4338 2.34375 15.1351 2.34375ZM19.4595 0H17.8378C17.5392 0 17.2973 0.174805 17.2973 0.390625V12.1094C17.2973 12.3252 17.5392 12.5 17.8378 12.5H19.4595C19.7581 12.5 20 12.3252 20 12.1094V0.390625C20 0.174805 19.7581 0 19.4595 0Z" fill="#EBE6E6"/>
</svg>
