



<svg width="37" height="37" viewBox="0 0 37 37" fill="none" xmlns="http://www.w3.org/2000/svg">
<path d="M18.42 0C8.43452 0 0 8.43452 0 18.42C0 24.2941 2.93246 29.6157 7.368 33.016V33.156H7.55588C10.6283 35.4493 14.3915 36.84 18.42 36.84C22.4485 36.84 26.2117 35.4493 29.2841 33.156H29.472V33.016C33.9075 29.6157 36.84 24.296 36.84 18.42C36.84 8.43452 28.4055 0 18.42 0ZM11.1883 31.1795C11.7354 28.702 13.9403 26.8435 16.578 26.8435H20.262C22.8997 26.8435 25.1046 28.7039 25.6517 31.1795C23.5002 32.4266 21.0283 33.156 18.42 33.156C15.8117 33.156 13.3398 32.4266 11.1883 31.1795ZM28.7536 28.8107C27.3592 25.4951 24.0786 23.1595 20.262 23.1595H16.578C12.7614 23.1595 9.47893 25.497 8.08638 28.8107C5.38417 26.1232 3.684 22.4282 3.684 18.42C3.684 10.4312 10.4312 3.684 18.42 3.684C26.4088 3.684 33.156 10.4312 33.156 18.42C33.156 22.4282 31.4558 26.1232 28.7536 28.8107Z" fill="#F39999"/>
<path d="M18.42 7.36798C14.2202 7.36798 11.052 10.5362 11.052 14.736C11.052 18.9357 14.2202 22.104 18.42 22.104C22.6197 22.104 25.788 18.9357 25.788 14.736C25.788 10.5362 22.6197 7.36798 18.42 7.36798ZM18.42 18.42C16.2501 18.42 14.736 16.9059 14.736 14.736C14.736 12.5661 16.2501 11.052 18.42 11.052C20.5898 11.052 22.104 12.5661 22.104 14.736C22.104 16.9059 20.5898 18.42 18.42 18.42Z" fill="#F39999"/>
</svg>
